<svg width="338" height="77" viewBox="0 0 338 77" fill="none" xmlns="http://www.w3.org/2000/svg">
<g clip-path="url(#clip0_728_963)">
<g filter="url(#filter0_d_728_963)">
<rect x="75.2651" y="27.0098" width="93.3404" height="33.9855" fill="#FFFD92"/>
</g>
<g clip-path="url(#clip1_728_963)">
<path d="M123.029 19.0081L123.133 20.7478L121.831 20.2741L123.029 19.0081Z" fill="#434343"/>
<path d="M124.78 19.6458L124.884 21.3855L123.582 20.9118L124.78 19.6458Z" fill="#434343"/>
<path d="M124.029 19.3721L124.133 21.1118L122.831 20.6381L124.029 19.3721Z" fill="#434343"/>
<path d="M122.277 18.7354L122.381 20.4751L120.979 19.9647L122.277 18.7354Z" fill="#434343"/>
<path d="M126.285 20.1946L126.489 21.9709L125.087 21.4606L126.285 20.1946Z" fill="#434343"/>
<path d="M125.533 19.9192L125.637 21.6589L124.335 21.1852L125.533 19.9192Z" fill="#434343"/>
<path d="M120.701 33.194L120.597 31.4544L121.899 31.9281L120.701 33.194Z" fill="#434343"/>
<path d="M118.948 32.5573L118.845 30.8176L120.146 31.2913L118.948 32.5573Z" fill="#434343"/>
<path d="M119.7 32.8288L119.596 31.0891L120.897 31.5628L119.7 32.8288Z" fill="#434343"/>
<path d="M121.453 33.4675L121.349 31.7278L122.751 32.2381L121.453 33.4675Z" fill="#434343"/>
<path d="M117.444 32.0095L117.24 30.2332L118.642 30.7435L117.444 32.0095Z" fill="#434343"/>
<path d="M118.196 32.2836L118.092 30.544L119.394 31.0177L118.196 32.2836Z" fill="#434343"/>
<rect x="120.978" y="19.9646" width="5.86402" height="10.9284" transform="rotate(20 120.978 19.9646)" fill="#434343"/>
</g>
<path d="M102.393 51.3138H101.161V37.6178H102.393V51.3138ZM101.753 43.1218H104.585V44.1458H101.753V43.1218ZM98.7606 43.4258C98.7606 44.4924 98.622 45.3724 98.3446 46.0658C98.078 46.7591 97.6886 47.2764 97.1766 47.6178C96.6753 47.9484 96.0726 48.1138 95.3686 48.1138C94.6646 48.1138 94.0566 47.9484 93.5446 47.6178C93.0433 47.2764 92.654 46.7591 92.3766 46.0658C92.11 45.3724 91.9766 44.4924 91.9766 43.4258C91.9766 42.3484 92.11 41.4631 92.3766 40.7698C92.654 40.0764 93.0433 39.5644 93.5446 39.2338C94.0566 38.9031 94.6646 38.7378 95.3686 38.7378C96.0726 38.7378 96.6753 38.9031 97.1766 39.2338C97.6886 39.5644 98.078 40.0764 98.3446 40.7698C98.622 41.4631 98.7606 42.3484 98.7606 43.4258ZM93.1766 43.4258C93.1766 44.2684 93.2566 44.9618 93.4166 45.5058C93.5766 46.0498 93.8166 46.4498 94.1366 46.7058C94.4673 46.9618 94.878 47.0898 95.3686 47.0898C95.87 47.0898 96.2806 46.9618 96.6006 46.7058C96.9206 46.4498 97.1606 46.0498 97.3206 45.5058C97.4806 44.9618 97.5606 44.2684 97.5606 43.4258C97.5606 42.5831 97.4806 41.8898 97.3206 41.3458C97.1606 40.8018 96.9206 40.4018 96.6006 40.1458C96.2806 39.8898 95.87 39.7618 95.3686 39.7618C94.878 39.7618 94.4673 39.8898 94.1366 40.1458C93.8166 40.4018 93.5766 40.8018 93.4166 41.3458C93.2566 41.8898 93.1766 42.5831 93.1766 43.4258ZM116.8 51.3138H115.568V37.6178H116.8V51.3138ZM113.008 43.4258C113.008 44.4924 112.864 45.3778 112.576 46.0818C112.298 46.7751 111.893 47.2924 111.36 47.6338C110.837 47.9644 110.202 48.1298 109.456 48.1298C108.73 48.1298 108.101 47.9644 107.568 47.6338C107.034 47.2924 106.624 46.7751 106.336 46.0818C106.048 45.3778 105.904 44.4924 105.904 43.4258C105.904 42.3591 106.048 41.4791 106.336 40.7858C106.624 40.0818 107.034 39.5591 107.568 39.2178C108.101 38.8764 108.73 38.7058 109.456 38.7058C110.202 38.7058 110.837 38.8764 111.36 39.2178C111.893 39.5591 112.298 40.0818 112.576 40.7858C112.864 41.4791 113.008 42.3591 113.008 43.4258ZM107.152 43.4258C107.152 44.2578 107.237 44.9458 107.408 45.4898C107.578 46.0338 107.829 46.4391 108.16 46.7058C108.501 46.9618 108.933 47.0898 109.456 47.0898C109.989 47.0898 110.426 46.9618 110.768 46.7058C111.109 46.4391 111.36 46.0338 111.52 45.4898C111.69 44.9458 111.776 44.2578 111.776 43.4258C111.776 42.5831 111.69 41.8951 111.52 41.3618C111.36 40.8178 111.109 40.4178 110.768 40.1618C110.426 39.8951 109.989 39.7618 109.456 39.7618C108.933 39.7618 108.501 39.8951 108.16 40.1618C107.829 40.4178 107.578 40.8178 107.408 41.3618C107.237 41.8951 107.152 42.5831 107.152 43.4258ZM130.503 51.3138H129.287V37.6178H130.503V51.3138ZM119.927 39.0258H126.359V40.0498H121.143V46.7698H122.583C123.703 46.7698 124.652 46.7378 125.431 46.6738C126.22 46.6098 126.924 46.5404 127.543 46.4658L127.639 47.4898C127.223 47.5431 126.764 47.5964 126.263 47.6498C125.772 47.6924 125.196 47.7298 124.535 47.7618C123.874 47.7938 123.09 47.8098 122.183 47.8098H119.927V39.0258ZM144.206 51.3138H142.974V37.6178H144.206V51.3138ZM139.262 42.9138H143.598V43.9378H139.262V42.9138ZM139.854 43.4258C139.854 44.4924 139.715 45.3724 139.438 46.0658C139.171 46.7591 138.782 47.2764 138.27 47.6178C137.769 47.9484 137.166 48.1138 136.462 48.1138C135.769 48.1138 135.166 47.9484 134.654 47.6178C134.153 47.2764 133.763 46.7591 133.486 46.0658C133.219 45.3724 133.086 44.4924 133.086 43.4258C133.086 42.3484 133.219 41.4631 133.486 40.7698C133.763 40.0764 134.153 39.5644 134.654 39.2338C135.166 38.9031 135.769 38.7378 136.462 38.7378C137.166 38.7378 137.769 38.9031 138.27 39.2338C138.782 39.5644 139.171 40.0764 139.438 40.7698C139.715 41.4631 139.854 42.3484 139.854 43.4258ZM134.286 43.4258C134.286 44.2684 134.361 44.9618 134.51 45.5058C134.67 46.0498 134.91 46.4498 135.23 46.7058C135.561 46.9618 135.971 47.0898 136.462 47.0898C136.963 47.0898 137.374 46.9618 137.694 46.7058C138.014 46.4498 138.254 46.0498 138.414 45.5058C138.574 44.9618 138.654 44.2684 138.654 43.4258C138.654 42.5831 138.574 41.8898 138.414 41.3458C138.254 40.8018 138.014 40.4018 137.694 40.1458C137.374 39.8898 136.963 39.7618 136.462 39.7618C135.971 39.7618 135.561 39.8898 135.23 40.1458C134.91 40.4018 134.67 40.8018 134.51 41.3458C134.361 41.8898 134.286 42.5831 134.286 43.4258Z" fill="black"/>
</g>
<path d="M32.208 46.88C32.208 47.4453 32.4053 47.9253 32.8 48.32C33.2053 48.7147 33.7653 49.0613 34.48 49.36C35.1947 49.648 36.0267 49.9253 36.976 50.192L36.608 51.216C35.68 50.928 34.864 50.6453 34.16 50.368C33.456 50.0907 32.8747 49.7547 32.416 49.36C31.9573 48.9547 31.6267 48.448 31.424 47.84H31.712C31.4987 48.448 31.1573 48.9493 30.688 49.344C30.2293 49.7387 29.648 50.0747 28.944 50.352C28.24 50.64 27.424 50.9227 26.496 51.2L26.128 50.192C27.0773 49.9253 27.9093 49.648 28.624 49.36C29.3493 49.0613 29.9093 48.7147 30.304 48.32C30.7093 47.9253 30.912 47.4453 30.912 46.88V46H32.208V46.88ZM35.936 46.944H34.72V37.472H35.936V46.944ZM31.824 41.776H35.328V42.816H31.824V41.776ZM25.008 40.912V39.92H32.128V40.912H25.008ZM25.056 45.744L24.512 44.736C25.3973 44.2987 26.0907 43.8773 26.592 43.472C27.0933 43.056 27.4453 42.6293 27.648 42.192C27.8507 41.7547 27.952 41.2747 27.952 40.752V40.304H29.184V40.752C29.184 41.2533 29.2853 41.7173 29.488 42.144C29.7013 42.56 30.0533 42.96 30.544 43.344C31.0453 43.728 31.7333 44.1173 32.608 44.512L32.112 45.536C31.376 45.216 30.7573 44.88 30.256 44.528C29.7547 44.176 29.3387 43.776 29.008 43.328C28.688 42.8693 28.432 42.3253 28.24 41.696H28.912C28.72 42.3467 28.4533 42.912 28.112 43.392C27.7813 43.8613 27.3653 44.2827 26.864 44.656C26.3627 45.0293 25.76 45.392 25.056 45.744ZM26.448 38.784V37.792H30.672V38.784H26.448ZM46.0086 49.936H54.0246V50.96H44.7766V46.544H46.0086V49.936ZM53.5766 47.504H52.3606V37.472H53.5766V47.504ZM48.6326 41.232H52.9686V42.256H48.6326V41.232ZM47.9446 38.384H49.1606V45.2H42.8566V38.384H44.0566V44.208H47.9446V38.384ZM48.8406 40.8V41.792H43.2086V40.8H48.8406ZM65.1678 50.592H63.9998V37.696H65.1678V50.592ZM67.8238 51.168H66.6558V37.488H67.8238V51.168ZM64.6558 43.008H67.3118V44.032H64.6558V43.008ZM59.8718 39.136H63.1358V40.144H59.8718V39.136ZM56.0798 39.136H59.3758V40.144H56.0798V39.136ZM60.6718 39.632H61.8238V41.488C61.8238 42.096 61.8504 42.64 61.9038 43.12C61.9571 43.5893 62.0478 44.0267 62.1758 44.432C62.3038 44.8373 62.4798 45.2373 62.7038 45.632C62.9384 46.0267 63.2318 46.448 63.5838 46.896L62.8318 47.744C62.4371 47.2107 62.0958 46.6773 61.8078 46.144C61.5304 45.6107 61.3064 45.04 61.1358 44.432C60.9758 43.824 60.8638 43.152 60.7998 42.416H61.6798C61.6051 43.5573 61.4024 44.592 61.0718 45.52C60.7411 46.448 60.2558 47.2907 59.6158 48.048L58.9758 47.136C59.3918 46.592 59.7224 46.0533 59.9678 45.52C60.2131 44.976 60.3891 44.3893 60.4958 43.76C60.6131 43.1307 60.6718 42.416 60.6718 41.616V39.632ZM57.4557 39.632H58.6078V41.488C58.6078 42.2987 58.6611 43.0293 58.7678 43.68C58.8744 44.3307 59.0504 44.9333 59.2958 45.488C59.5411 46.0427 59.8611 46.592 60.2558 47.136L59.6158 48.048C59.1998 47.536 58.8478 46.9813 58.5598 46.384C58.2718 45.7867 58.0478 45.1573 57.8878 44.496C57.7384 43.824 57.6371 43.1307 57.5838 42.416H58.4798C58.4158 43.1307 58.3091 43.7973 58.1598 44.416C58.0104 45.024 57.7918 45.6107 57.5038 46.176C57.2158 46.7307 56.8371 47.296 56.3678 47.872L55.6318 47.024C55.9731 46.5867 56.2611 46.1707 56.4958 45.776C56.7304 45.3813 56.9171 44.9813 57.0558 44.576C57.1944 44.1707 57.2958 43.7333 57.3598 43.264C57.4238 42.784 57.4557 42.2347 57.4557 41.616V39.632Z" fill="black"/>
<g clip-path="url(#clip2_728_963)">
<rect x="299.587" y="35.5088" width="6.04587" height="2.01529" fill="black"/>
<rect x="297.572" y="37.5242" width="2.01529" height="2.01529" fill="black"/>
<rect x="305.633" y="37.5242" width="2.01529" height="2.01529" fill="black"/>
<rect x="309.663" y="35.5088" width="2.01529" height="2.01529" fill="black"/>
<rect x="311.679" y="33.4937" width="2.01529" height="2.01529" fill="black"/>
<rect x="290.518" y="41.5547" width="3.02293" height="2.01529" fill="black"/>
<rect x="311.679" y="41.5547" width="3.02293" height="2.01529" fill="black"/>
<rect x="293.541" y="35.5088" width="2.01529" height="2.01529" fill="black"/>
<rect x="291.526" y="33.4937" width="2.01529" height="2.01529" fill="black"/>
<rect x="297.572" y="45.5852" width="2.01529" height="2.01529" fill="black"/>
<rect x="305.633" y="45.5852" width="2.01529" height="2.01529" fill="black"/>
<rect x="295.556" y="39.5393" width="2.01529" height="6.04587" fill="black"/>
<rect x="307.648" y="39.5393" width="2.01529" height="6.04587" fill="black"/>
<rect x="299.587" y="47.6006" width="6.04587" height="2.01529" fill="black"/>
<rect x="299.587" y="51.6311" width="6.04587" height="2.01529" fill="black"/>
<rect x="299.587" y="49.616" width="2.01529" height="2.01529" fill="black"/>
<rect x="303.618" y="49.616" width="2.01529" height="2.01529" fill="black"/>
<rect x="301.602" y="31.4783" width="2.01529" height="3.02293" fill="black"/>
</g>
<path d="M174.784 43.488H187.904V44.512H174.784V43.488ZM176.352 45.664H186.272V48.752H177.696V50.448H176.384V47.84H184.96V46.624H176.352V45.664ZM176.384 50.096H186.736V51.056H176.384V50.096ZM176.448 37.2H186.224V40.208H177.792V41.776H176.48V39.312H184.912V38.144H176.448V37.2ZM176.48 41.456H186.48V42.416H176.48V41.456ZM197.587 38.256H198.675V39.424C198.675 40.3093 198.504 41.136 198.163 41.904C197.832 42.6613 197.368 43.3227 196.771 43.888C196.173 44.4427 195.469 44.864 194.659 45.152L193.955 44.128C194.68 43.872 195.315 43.504 195.859 43.024C196.403 42.544 196.824 42 197.123 41.392C197.432 40.7733 197.587 40.1173 197.587 39.424V38.256ZM197.827 38.256H198.915V39.424C198.915 40.0533 199.059 40.6613 199.347 41.248C199.635 41.8347 200.04 42.352 200.563 42.8C201.096 43.248 201.715 43.5947 202.419 43.84L201.747 44.88C200.957 44.592 200.264 44.1813 199.667 43.648C199.08 43.104 198.627 42.4693 198.307 41.744C197.987 41.0187 197.827 40.2453 197.827 39.424V38.256ZM194.355 37.776H202.099V38.864H194.355V37.776ZM203.923 36.768H205.251V45.488H203.923V36.768ZM204.883 40.576H207.379V41.696H204.883V40.576ZM195.843 46.256H205.251V51.248H203.923V47.344H195.843V46.256ZM212.386 37.584H213.49V39.072C213.49 40.0107 213.319 40.8747 212.978 41.664C212.647 42.4533 212.178 43.1467 211.57 43.744C210.972 44.3307 210.258 44.7787 209.426 45.088L208.722 44.016C209.468 43.7493 210.114 43.3707 210.658 42.88C211.202 42.3893 211.623 41.8187 211.922 41.168C212.231 40.5067 212.386 39.808 212.386 39.072V37.584ZM212.626 37.584H213.698V39.024C213.698 39.7067 213.847 40.352 214.146 40.96C214.444 41.568 214.855 42.1067 215.378 42.576C215.911 43.0347 216.53 43.3813 217.234 43.616L216.514 44.656C215.735 44.3573 215.052 43.936 214.466 43.392C213.879 42.848 213.426 42.2027 213.106 41.456C212.786 40.7093 212.626 39.8987 212.626 39.024V37.584ZM219.314 36.768H220.642V45.328H219.314V36.768ZM215.874 45.76C217.367 45.76 218.54 46 219.394 46.48C220.258 46.96 220.69 47.632 220.69 48.496C220.69 49.3493 220.258 50.016 219.394 50.496C218.54 50.976 217.367 51.216 215.874 51.216C214.38 51.216 213.202 50.976 212.338 50.496C211.484 50.016 211.058 49.3493 211.058 48.496C211.058 47.632 211.484 46.96 212.338 46.48C213.202 46 214.38 45.76 215.874 45.76ZM215.874 46.816C215.148 46.816 214.524 46.8853 214.002 47.024C213.479 47.152 213.074 47.344 212.786 47.6C212.508 47.8453 212.37 48.144 212.37 48.496C212.37 48.8373 212.508 49.136 212.786 49.392C213.074 49.6373 213.479 49.8293 214.002 49.968C214.524 50.096 215.148 50.16 215.874 50.16C216.61 50.16 217.234 50.096 217.746 49.968C218.268 49.8293 218.668 49.6373 218.946 49.392C219.234 49.136 219.378 48.8373 219.378 48.496C219.378 48.144 219.234 47.8453 218.946 47.6C218.668 47.344 218.268 47.152 217.746 47.024C217.234 46.8853 216.61 46.816 215.874 46.816ZM216.161 39.824H219.586V40.928H216.161V39.824ZM223.424 39.248H230.608V40.336H223.424V39.248ZM227.024 41.296C227.632 41.296 228.166 41.4347 228.624 41.712C229.094 41.9893 229.462 42.3787 229.728 42.88C229.995 43.3707 230.128 43.9413 230.128 44.592C230.128 45.2427 229.995 45.8187 229.728 46.32C229.462 46.8107 229.094 47.2 228.624 47.488C228.166 47.7653 227.632 47.904 227.024 47.904C226.427 47.904 225.894 47.7653 225.424 47.488C224.955 47.2 224.587 46.8107 224.32 46.32C224.054 45.8187 223.92 45.2427 223.92 44.592C223.92 43.9413 224.054 43.3707 224.32 42.88C224.587 42.3893 224.955 42.0053 225.424 41.728C225.894 41.44 226.427 41.296 227.024 41.296ZM227.024 42.416C226.662 42.416 226.331 42.512 226.032 42.704C225.744 42.8853 225.515 43.1413 225.344 43.472C225.184 43.792 225.104 44.1653 225.104 44.592C225.104 45.0187 225.184 45.3973 225.344 45.728C225.515 46.0587 225.744 46.3147 226.032 46.496C226.331 46.6773 226.662 46.768 227.024 46.768C227.398 46.768 227.728 46.6773 228.016 46.496C228.304 46.3147 228.528 46.0587 228.688 45.728C228.859 45.3973 228.944 45.0187 228.944 44.592C228.944 44.1653 228.859 43.792 228.688 43.472C228.528 43.1413 228.304 42.8853 228.016 42.704C227.728 42.512 227.398 42.416 227.024 42.416ZM234.432 36.768H235.696V51.248H234.432V36.768ZM232.112 42.864H234.848V43.952H232.112V42.864ZM231.328 37.104H232.576V50.544H231.328V37.104ZM226.368 37.2H227.68V39.904H226.368V37.2ZM238.175 48.304H251.295V49.408H238.175V48.304ZM244.047 44.832H245.359V48.624H244.047V44.832ZM239.711 37.792H241.039V40.368H248.399V37.792H249.711V45.2H239.711V37.792ZM241.039 41.456V44.112H248.399V41.456H241.039ZM258.59 41.952H261.374V43.056H258.59V41.952ZM255.902 38.128H256.942V40.896C256.942 41.6427 256.862 42.3787 256.702 43.104C256.552 43.8293 256.328 44.512 256.03 45.152C255.742 45.792 255.39 46.368 254.974 46.88C254.558 47.392 254.088 47.808 253.566 48.128L252.734 47.136C253.224 46.8373 253.667 46.464 254.062 46.016C254.456 45.568 254.787 45.0667 255.054 44.512C255.331 43.9467 255.539 43.36 255.678 42.752C255.827 42.1333 255.902 41.5147 255.902 40.896V38.128ZM256.158 38.128H257.182V40.848C257.182 41.424 257.246 42.0053 257.374 42.592C257.512 43.168 257.704 43.7227 257.95 44.256C258.206 44.7787 258.52 45.2587 258.894 45.696C259.267 46.1333 259.688 46.496 260.158 46.784L259.406 47.808C258.883 47.488 258.419 47.0827 258.014 46.592C257.608 46.0907 257.267 45.5307 256.99 44.912C256.712 44.2827 256.504 43.6213 256.366 42.928C256.227 42.2347 256.158 41.5413 256.158 40.848V38.128ZM263.918 36.768H265.198V51.248H263.918V36.768ZM260.974 37.072H262.222V50.512H260.974V37.072ZM270.829 44.224H272.141V48.544H270.829V44.224ZM276.173 44.224H277.501V48.544H276.173V44.224ZM267.613 48.288H280.733V49.392H267.613V48.288ZM274.141 37.68C275.165 37.68 276.071 37.8347 276.861 38.144C277.65 38.4533 278.269 38.8853 278.717 39.44C279.175 39.9947 279.405 40.6507 279.405 41.408C279.405 42.1547 279.175 42.8107 278.717 43.376C278.269 43.9307 277.65 44.3627 276.861 44.672C276.071 44.9707 275.165 45.12 274.141 45.12C273.127 45.12 272.221 44.9707 271.421 44.672C270.631 44.3627 270.013 43.9307 269.565 43.376C269.117 42.8107 268.893 42.1547 268.893 41.408C268.893 40.6507 269.117 39.9947 269.565 39.44C270.013 38.8853 270.631 38.4533 271.421 38.144C272.221 37.8347 273.127 37.68 274.141 37.68ZM274.141 38.736C273.373 38.736 272.69 38.848 272.093 39.072C271.495 39.296 271.026 39.6107 270.685 40.016C270.343 40.4107 270.173 40.8747 270.173 41.408C270.173 41.9413 270.343 42.4107 270.685 42.816C271.026 43.2107 271.495 43.52 272.093 43.744C272.69 43.968 273.373 44.08 274.141 44.08C274.919 44.08 275.607 43.968 276.205 43.744C276.802 43.52 277.271 43.2107 277.613 42.816C277.954 42.4107 278.125 41.9413 278.125 41.408C278.125 40.8747 277.954 40.4107 277.613 40.016C277.271 39.6107 276.802 39.296 276.205 39.072C275.607 38.848 274.919 38.736 274.141 38.736Z" fill="black"/>
<defs>
<filter id="filter0_d_728_963" x="74.3078" y="27.0098" width="95.255" height="35.9003" filterUnits="userSpaceOnUse" color-interpolation-filters="sRGB">
<feFlood flood-opacity="0" result="BackgroundImageFix"/>
<feColorMatrix in="SourceAlpha" type="matrix" values="0 0 0 0 0 0 0 0 0 0 0 0 0 0 0 0 0 0 127 0" result="hardAlpha"/>
<feOffset dy="0.957337"/>
<feGaussianBlur stdDeviation="0.478669"/>
<feComposite in2="hardAlpha" operator="out"/>
<feColorMatrix type="matrix" values="0 0 0 0 0 0 0 0 0 0 0 0 0 0 0 0 0 0 0.25 0"/>
<feBlend mode="normal" in2="BackgroundImageFix" result="effect1_dropShadow_728_963"/>
<feBlend mode="normal" in="SourceGraphic" in2="effect1_dropShadow_728_963" result="shape"/>
</filter>
<clipPath id="clip0_728_963">
<rect width="104.429" height="45.344" fill="white" transform="translate(70 16)"/>
</clipPath>
<clipPath id="clip1_728_963">
<rect width="14.3935" height="15.9928" fill="white" transform="translate(117.883 16.0005) rotate(20)"/>
</clipPath>
<clipPath id="clip2_728_963">
<rect width="24.1835" height="24.1835" fill="white" transform="translate(290.518 31.4783)"/>
</clipPath>
</defs>
</svg>
